<svg xmlns="http://www.w3.org/2000/svg" width="1200" height="260" viewBox="0 0 1200 260" role="img" aria-label="hola, soy Osmar - hago apps y las pongo en internet">
  <defs>
    <linearGradient id="bg" x1="0%" y1="0%" x2="100%" y2="100%">
      <stop offset="0%" stop-color="#4C1D95"/>
      <stop offset="45%" stop-color="#2563EB"/>
      <stop offset="100%" stop-color="#06B6D4"/>
    </linearGradient>
    <linearGradient id="wave1" x1="0%" y1="0%" x2="100%" y2="0%">
      <stop offset="0%" stop-color="#ffffff" stop-opacity="0.10"/>
      <stop offset="100%" stop-color="#ffffff" stop-opacity="0.02"/>
    </linearGradient>
    <linearGradient id="wave2" x1="0%" y1="0%" x2="100%" y2="0%">
      <stop offset="0%" stop-color="#000000" stop-opacity="0.14"/>
      <stop offset="100%" stop-color="#000000" stop-opacity="0.04"/>
    </linearGradient>
  </defs>

  <rect width="1200" height="260" fill="url(#bg)"/>

  <path d="M0,196 C170,150 300,236 470,208 C640,180 780,120 940,150 C1060,172 1140,206 1200,196 L1200,260 L0,260 Z" fill="url(#wave2)"/>
  <path d="M0,224 C160,196 320,254 500,232 C680,210 830,166 1000,190 C1100,204 1160,228 1200,222 L1200,260 L0,260 Z" fill="url(#wave1)"/>

  <circle cx="1058" cy="62" r="52" fill="#ffffff" opacity="0.07"/>
  <circle cx="1128" cy="126" r="30" fill="#ffffff" opacity="0.05"/>
  <circle cx="106" cy="206" r="40" fill="#ffffff" opacity="0.05"/>

  <text x="64" y="104" font-family="'Segoe UI', Helvetica, Arial, sans-serif" font-size="54" font-weight="700" fill="#ffffff" letter-spacing="-1">hola, soy Osmar</text>
  <text x="64" y="146" font-family="'Segoe UI', Helvetica, Arial, sans-serif" font-size="21" font-weight="500" fill="#ffffff" opacity="0.92">hago apps y las pongo en internet</text>
  <text x="66" y="188" font-family="'SFMono-Regular', Consolas, 'Liberation Mono', Menlo, monospace" font-size="15" font-weight="400" fill="#ffffff" opacity="0.72">Next.js  ·  FastAPI  ·  Spring Boot  ·  C++     //     CS @ UTEC, Lima</text>
</svg>
